<svg id="analyze" xmlns="http://www.w3.org/2000/svg" width="24" height="22.807" viewBox="0 0 24 22.807">
  <path id="Combined_Shape" data-name="Combined Shape" d="M17.892,19.229V16.7h2.53L24,20.277l-2.53,2.53Zm-9.542-7.3a5.964,5.964,0,1,1,5.964,5.963A5.97,5.97,0,0,1,8.35,11.929Zm2.385,0A3.578,3.578,0,1,0,14.314,8.35,3.583,3.583,0,0,0,10.735,11.929ZM8.112,15.505H0V13.12H7.256A7.116,7.116,0,0,0,8.112,15.5v0Zm-.956-3.578H5.964V4.771H9.542V6.593a7.164,7.164,0,0,0-2.385,5.333h0Zm-2.386,0H1.193V0H4.771V11.926h0ZM19.082,6.591a7.135,7.135,0,0,0-3.577-1.722V3.578h3.579V6.593Zm-8.347-.865V2.385h3.578V4.771h-.008a7.138,7.138,0,0,0-3.568.955h0Z" fill="#1b1534"/>
</svg>
