<svg xmlns="http://www.w3.org/2000/svg" width="20" height="20" viewBox="0 0 20 20">
  <path id="help" d="M2.01,10a8,8,0,1,0,8-8A8.009,8.009,0,0,0,2.01,10Zm-2,0a10,10,0,1,1,10,10A10,10,0,0,1,.01,10ZM11.816,5.275a4.232,4.232,0,0,0-1.961-.434,3.327,3.327,0,0,0-2.146.695A2.97,2.97,0,0,0,6.68,7.992H8.541V7.98A1.829,1.829,0,0,1,8.8,6.962a1.3,1.3,0,0,1,1.166-.533,1.37,1.37,0,0,1,.844.26,1.34,1.34,0,0,1,.435,1.092,1.527,1.527,0,0,1-.224.819,2.2,2.2,0,0,1-.6.633A3.09,3.09,0,0,0,9.3,10.412a3.906,3.906,0,0,0-.223,1.538h1.75a2.275,2.275,0,0,1,.185-1.042,1.9,1.9,0,0,1,.62-.609A4.914,4.914,0,0,0,12.8,9.171a2.524,2.524,0,0,0,.422-1.453A2.525,2.525,0,0,0,11.816,5.275Zm-1.808,7.478a1.2,1.2,0,0,0-.9.368,1.145,1.145,0,0,0-.318.838A1.171,1.171,0,0,0,10,15.159a1.147,1.147,0,0,0,.882-.368,1.254,1.254,0,0,0,0-1.669A1.145,1.145,0,0,0,10.009,12.754Z" transform="translate(-0.01)" fill="#000028"/>
</svg>
