<svg xmlns="http://www.w3.org/2000/svg" xmlns:xlink="http://www.w3.org/1999/xlink" width="30.053" height="39.534" viewBox="0 0 30.053 39.534">
  <defs>
    <clipPath id="clip-path">
      <rect id="Rectangle_3087" data-name="Rectangle 3087" width="30.053" height="39.534" transform="translate(0 0)" fill="none"/>
    </clipPath>
  </defs>
  <g id="operator_-_image" data-name="operator - image" transform="translate(0 0)">
    <g id="Group_3833" data-name="Group 3833" clip-path="url(#clip-path)">
      <path id="Path_2817" data-name="Path 2817" d="M30.053,24.63l-.991,14.9-1-.067L29,25.369l-9.872-2.821-4.1,3.077-4.1-3.077L1.054,25.369l.972,14.1-1,.069L0,24.63l10.636-3.039.838-2.512A9.629,9.629,0,0,1,8.534,12H5.527V9H6.542a8.492,8.492,0,0,1,5.985-7.605V0h5V4.5h-1V1h-3V4.5h-1V2.454a7.487,7.487,0,0,0-5,7.046V10h-1v1h17V10h-1V9.5a7.5,7.5,0,0,0-3.282-6.2l.564-.826A8.5,8.5,0,0,1,23.512,9h1.015v3H9.534c.07,4.151,2.5,7.5,5.493,7.5,2.322,0,4.406-2.059,5.186-5.123l.969.246c-.894,3.515-3.368,5.877-6.155,5.877a5.136,5.136,0,0,1-2.707-.8l-.7,2.115,3.411,2.559,3.9-2.924Z" fill="#1b1534"/>
    </g>
  </g>
</svg>
