<svg xmlns="http://www.w3.org/2000/svg" width="16" height="16" viewBox="0 0 16 16">
  <path id="refresh" d="M5,10c.5,0,.7.3.3.7L3.8,12.2A5.988,5.988,0,0,0,8,14a6.048,6.048,0,0,0,6-5.2A1.011,1.011,0,0,1,16,9v.2A8,8,0,0,1,8,16a8.362,8.362,0,0,1-5.7-2.3L.7,15.3c-.4.4-.7.2-.7-.3V10.5A.472.472,0,0,1,.5,10Zm6-4c-.5,0-.7-.3-.3-.7l1.5-1.5A5.988,5.988,0,0,0,8,2,6.048,6.048,0,0,0,2,7.2.95.95,0,0,1,1,8,.945.945,0,0,1,0,7V6.8A8,8,0,0,1,8,0a8.362,8.362,0,0,1,5.7,2.3L15.3.7c.4-.4.7-.2.7.3V5.5a.472.472,0,0,1-.5.5Z" fill="#1b1534"/>
</svg>
