<svg xmlns="http://www.w3.org/2000/svg" width="25.104" height="24" viewBox="0 0 25.104 24">
  <path id="settings" d="M15.011,0h2.4V2.9a10,10,0,0,1,1.4.809l.43-.25,2.08-1.2,1.2,2.077,1.919,3.326,1.2,2.078-2.077,1.2-.43.246c.024.272.036.542.036.812s-.012.54-.036.812l.43.246,2.077,1.2-1.2,2.078-1.919,3.326-1.2,2.077-2.08-1.2-.43-.25a10,10,0,0,1-1.4.809V24H8.772V21.1a10,10,0,0,1-1.4-.809l-.431.25-2.078,1.2-1.2-2.077-1.92-3.326-1.2-2.078,2.078-1.2.428-.246c-.023-.272-.035-.542-.035-.812s.012-.54.035-.812l-.428-.246L.539,9.742l1.2-2.078,1.92-3.326,1.2-2.077,2.078,1.2.431.25a10,10,0,0,1,1.4-.809V0h6.239Zm0,4.572V2.4H11.172V4.572a7.653,7.653,0,0,0-3.558,2.05L5.737,5.537,3.817,8.863,5.7,9.948a7.514,7.514,0,0,0,0,4.1L3.817,15.137l1.92,3.326,1.877-1.085a7.653,7.653,0,0,0,3.558,2.05V21.6h3.839V19.428a7.653,7.653,0,0,0,3.558-2.05l1.876,1.085,1.921-3.326-1.879-1.085a7.514,7.514,0,0,0,0-4.1l1.879-1.085L20.445,5.537,18.569,6.622A7.653,7.653,0,0,0,15.011,4.572ZM13.092,7.2a4.8,4.8,0,1,0,4.8,4.8A4.8,4.8,0,0,0,13.092,7.2Zm0,2.4a2.4,2.4,0,1,1-2.4,2.4A2.4,2.4,0,0,1,13.092,9.6Z" transform="translate(-0.539)" fill="#fff"/>
</svg>
