<svg xmlns="http://www.w3.org/2000/svg" width="39" height="39" viewBox="0 0 39 39">
  <g id="video_call" data-name="video call" transform="translate(-358 -672)">
    <g id="Group_3410" data-name="Group 3410" transform="translate(-0.531)">
      <path id="Path_2733" data-name="Path 2733" d="M111.5,92A19.5,19.5,0,1,0,131,111.5,19.5,19.5,0,0,0,111.5,92Z" transform="translate(266.527 579.996)" fill="#1b1534"/>
      <path id="Union_1" data-name="Union 1" d="M109.211,184.838v2.109a1.58,1.58,0,0,1-1.579,1.579H96.579A1.58,1.58,0,0,1,95,186.947v-7.368A1.58,1.58,0,0,1,96.579,178h11.053a1.58,1.58,0,0,1,1.579,1.579v2.165L113.947,178A1.053,1.053,0,0,1,115,179.053v8.421a1.053,1.053,0,0,1-1.053,1.053C111.132,186.9,109.82,185.143,109.211,184.838Z" transform="translate(272.531 508)" fill="#fff"/>
    </g>
  </g>
</svg>
