<svg xmlns="http://www.w3.org/2000/svg" width="37" height="19.947" viewBox="0 0 37 19.947">
  <path id="video_call_image" data-name="video call image" d="M120.579,190.308v3.8a2.843,2.843,0,0,1-2.842,2.842H97.842A2.843,2.843,0,0,1,95,194.105V180.842A2.843,2.843,0,0,1,97.842,178h19.895a2.843,2.843,0,0,1,2.842,2.842v3.9l8.526-6.74A1.9,1.9,0,0,1,131,179.895v15.158a1.9,1.9,0,0,1-1.895,1.895C124.037,194.02,121.676,190.858,120.579,190.308Z" transform="translate(-94.5 -177.5)" fill="none" stroke="#1b1534" stroke-width="1"/>
</svg>
