<svg id="white" xmlns="http://www.w3.org/2000/svg" width="138" height="22" viewBox="0 0 138 22">
  <rect id="Logo_white_background" data-name="Logo/white background" width="138" height="22" fill="none"/>
  <g id="Siemens_Logo_no_claim_white" data-name="Siemens Logo/no claim/white">
    <g id="Siemens_Logo_no_claim_original" data-name="Siemens Logo/no claim/original">
      <g id="Group">
        <path id="Siemens" d="M121.795,21.045V16.894a20.852,20.852,0,0,0,6.248,1.115q3.751,0,3.75-1.99a1.654,1.654,0,0,0-.53-1.246,11.2,11.2,0,0,0-2.879-1.486A19.1,19.1,0,0,1,123,10.377a5.359,5.359,0,0,1-1.623-4.022,5.393,5.393,0,0,1,2.366-4.737A10.5,10.5,0,0,1,129.834,0a28.941,28.941,0,0,1,5.472.675l.517.09V4.759a14.664,14.664,0,0,0-5.431-1.169q-3.509,0-3.506,1.944a1.372,1.372,0,0,0,.707,1.188q.564.358,3.269,1.574a18.871,18.871,0,0,1,5.087,2.971,5.223,5.223,0,0,1,1.509,3.876,5.751,5.751,0,0,1-2.942,5.212,11.913,11.913,0,0,1-6.227,1.454A28.386,28.386,0,0,1,121.795,21.045Zm-121.37,0V16.894a21.055,21.055,0,0,0,6.246,1.115q3.752,0,3.752-1.99a1.629,1.629,0,0,0-.546-1.246,11.166,11.166,0,0,0-2.865-1.486,19.319,19.319,0,0,1-5.386-2.91A5.367,5.367,0,0,1,0,6.369,5.411,5.411,0,0,1,2.366,1.618,10.5,10.5,0,0,1,8.461,0a33.9,33.9,0,0,1,5.991.766V4.759A14.624,14.624,0,0,0,9.036,3.59q-3.521,0-3.522,1.944a1.372,1.372,0,0,0,.711,1.188q.59.372,3.252,1.574a18.6,18.6,0,0,1,5.1,2.971,5.231,5.231,0,0,1,1.509,3.876,5.747,5.747,0,0,1-2.958,5.212A11.839,11.839,0,0,1,6.917,21.81,28.4,28.4,0,0,1,.424,21.045ZM59.8,21.6,53.777,6.5V21.384h-4.12V.365h7.582L62.506,13.8,67.9.365h7.2V21.384H69.561V6.5L63.423,21.6Zm51.261-.214-7.381-14.26v14.26h-4.12V.365h6.777l7.19,14.07V.365h4.118V21.384Zm-30.588,0V.365h15v3.8H86.106V8.913h8.149v3.468H86.106v4.988h9.6v4.015Zm-49.869,0V.365h15v3.8H36.236V8.913h8.149v3.468H36.236v4.988h9.6v4.015Zm-11.21,0V.365h5.847V21.384Z" fill="#fff"/>
      </g>
    </g>
  </g>
</svg>
