<svg xmlns="http://www.w3.org/2000/svg" width="23.36" height="24" viewBox="0 0 23.36 24">
  <g id="add_call" data-name="add call" transform="translate(-221 -40)">
    <path id="plus" d="M14,8.6l-3.364-.235L10.4,5H8.6L8.364,8.364,5,8.6l.015,1.8,3.349.235L8.6,14h1.8l.235-3.364L14,10.4Z" transform="translate(230.361 35)" fill="#fff"/>
    <path id="phone" d="M17.68,13.156l2.757,2.815,1.695,1.624-1.695,1.7-.346.349A9.126,9.126,0,0,1,9.862,21.576a17.29,17.29,0,0,1-5.2-3.609,17.6,17.6,0,0,1-3.652-5.245A9.388,9.388,0,0,1,2.927,2.414l.346-.349L4.956.369l1.695,1.7L9.408,4.88l1.038,1.059L10.005,7.31,9.1,10.064l3.426,3.464,2.733-.926,1.408-.469Zm-4.106,6.832a6.8,6.8,0,0,0,4.834-2.021l.346-.325L16,14.864l-3,1.01a2.152,2.152,0,0,1-.621.1,1.95,1.95,0,0,1-1.373-.577L7.188,11.556a1.984,1.984,0,0,1-.465-2.009l1-3L4.956,3.725l-.334.337A6.908,6.908,0,0,0,3.19,11.7a15.168,15.168,0,0,0,3.151,4.523,14.725,14.725,0,0,0,4.5,3.176A6.58,6.58,0,0,0,13.574,19.988Z" transform="translate(220.766 41.631)" fill="#fff" fill-rule="evenodd"/>
  </g>
</svg>
