<svg xmlns="http://www.w3.org/2000/svg" width="48" height="36" viewBox="0 0 48 36">
  <g id="end_call" data-name="end call" transform="translate(-12 -30)">
    <rect id="Rectangle_3095" data-name="Rectangle 3095" width="48" height="36" rx="4" transform="translate(12 30)" fill="#dc0000"/>
    <path id="phone" d="M14.851,11l2.31,2.34,1.42,1.35-1.42,1.41-.29.29A7.69,7.69,0,0,1,8.3,18a14.489,14.489,0,0,1-4.36-3,14.629,14.629,0,0,1-3.06-4.36,7.76,7.76,0,0,1,1.61-8.57l.29-.29L4.191.369l1.42,1.41,2.31,2.34.87.88-.37,1.14-.76,2.29,2.87,2.88,2.29-.77,1.18-.39Zm-3.44,5.68A5.72,5.72,0,0,0,15.461,15l.29-.27-2.31-2.31-2.51.84a1.816,1.816,0,0,1-.52.08,1.64,1.64,0,0,1-1.15-.48l-3.2-3.19A1.64,1.64,0,0,1,5.671,8l.84-2.49-2.32-2.35-.28.28a5.71,5.71,0,0,0-1.2,6.35,12.609,12.609,0,0,0,2.64,3.76,12.337,12.337,0,0,0,3.77,2.64A5.549,5.549,0,0,0,11.411,16.679Z" transform="translate(18.592 37.486)" fill="#fff" fill-rule="evenodd"/>
    <g id="Arrow_down" transform="translate(42.444 44)">
      <path id="Path_2731" data-name="Path 2731" d="M6.857,6V6a.854.854,0,0,0-.262-.617h0L1.452.236l0,0A.857.857,0,1,0,.3,1.507L4.79,6,.24,10.548h0A.857.857,0,0,0,1.452,11.76h0L6.6,6.617h0A.854.854,0,0,0,6.857,6Z" transform="translate(12 0) rotate(90)" fill="#fff"/>
    </g>
  </g>
</svg>
