<svg id="Siemens_icon" data-name="Siemens icon" xmlns="http://www.w3.org/2000/svg" xmlns:xlink="http://www.w3.org/1999/xlink" width="60.001" height="60" viewBox="0 0 60.001 60">
  <defs>
    <filter id="Path_2737" x="-9" y="-6" width="78.001" height="78" filterUnits="userSpaceOnUse">
      <feOffset dy="3" input="SourceAlpha"/>
      <feGaussianBlur stdDeviation="3" result="blur"/>
      <feFlood flood-opacity="0.161"/>
      <feComposite operator="in" in2="blur"/>
      <feComposite in="SourceGraphic"/>
    </filter>
    <clipPath id="clip-path">
      <g transform="matrix(1, 0, 0, 1, 0, 0)" filter="url(#Path_2737)">
        <path id="Path_2737-2" data-name="Path 2737" d="M340.367,121.912a30,30,0,1,1-30-30A30,30,0,0,1,340.367,121.912Z" transform="translate(-274.2 -85.25)" fill="#fff"/>
      </g>
    </clipPath>
  </defs>
  <g id="Mask_Group_18" data-name="Mask Group 18" transform="translate(-6.171 -6.658)" clip-path="url(#clip-path)">
    <rect id="Rectangle_1814" data-name="Rectangle 1814" width="64" height="64" transform="translate(4.171 4.658)" fill="#099"/>
    <path id="Path_2738" data-name="Path 2738" d="M.421,20.87V16.765a21,21,0,0,0,6.2,1.1q3.725,0,3.725-1.968a1.607,1.607,0,0,0-.543-1.233A11.121,11.121,0,0,0,6.963,13.2,19.221,19.221,0,0,1,1.613,10.32,5.3,5.3,0,0,1,0,6.356a5.346,5.346,0,0,1,2.349-4.7A10.455,10.455,0,0,1,8.4.057a33.78,33.78,0,0,1,5.949.757V4.764A14.571,14.571,0,0,0,8.973,3.608q-3.5,0-3.5,1.923A1.356,1.356,0,0,0,6.18,6.705q.587.368,3.23,1.557A18.473,18.473,0,0,1,14.477,11.2a5.16,5.16,0,0,1,1.5,3.833,5.679,5.679,0,0,1-2.938,5.154,11.788,11.788,0,0,1-6.169,1.438A28.3,28.3,0,0,1,.421,20.87Z" transform="translate(28.171 25.601)" fill="#fff" fill-rule="evenodd"/>
  </g>
</svg>
