<svg xmlns="http://www.w3.org/2000/svg" width="27.429" height="23.999" viewBox="0 0 27.429 23.999">
  <g id="camera_reverse" data-name="camera reverse" transform="translate(-266 -41)">
    <g id="Union_118" data-name="Union 118" transform="translate(266.001 40.999)" fill="none">
      <path d="M2,24a2,2,0,0,1-2-2V5.429a2,2,0,0,1,2-2H6.856V2a2,2,0,0,1,2-2h9.714a2,2,0,0,1,2,2V3.429h4.856a2,2,0,0,1,2,2V22a2,2,0,0,1-2,2Z" stroke="none"/>
      <path d="M 25.42840003967285 22.00050163269043 L 25.42770004272461 5.429000854492188 L 18.5713005065918 5.429000854492188 L 18.57060050964355 2.000900745391846 L 8.856200218200684 2.000700712203979 L 8.856200218200684 5.429000854492188 L 1.999099850654602 5.428800582885742 L 1.999799847602844 22.00030136108398 L 25.42840003967285 22.00050163269043 M 25.42770004272461 24.00030136108398 L 1.999799847602844 24.00030136108398 C 0.8945999145507812 24.00030136108398 -0.0009001144208014011 23.10480117797852 -0.0009001144208014011 22.00050163269043 L -0.0009001144208014011 5.428800582885742 C -0.0009001144208014011 4.324501037597656 0.8945999145507812 3.429000854492188 1.999799847602844 3.429000854492188 L 6.856199741363525 3.429000854492188 L 6.856199741363525 2.000700712203979 C 6.856199741363525 0.8964008092880249 7.751699924468994 0.0009008148335851729 8.856900215148926 0.0009008148335851729 L 18.57060050964355 0.0009008148335851729 C 19.67580032348633 0.0009008148335851729 20.5713005065918 0.8964008092880249 20.5713005065918 2.000700712203979 L 20.5713005065918 3.429000854492188 L 25.42770004272461 3.429000854492188 C 26.53289985656738 3.429000854492188 27.42840003967285 4.324501037597656 27.42840003967285 5.428800582885742 L 27.42840003967285 22.00050163269043 C 27.42840003967285 23.10480117797852 26.53289985656738 24.00030136108398 25.42770004272461 24.00030136108398 Z" stroke="none" fill="#fff"/>
    </g>
    <path id="Path_2795" data-name="Path 2795" d="M3.75,7.5c.375,0,.525.225.225.525L2.85,9.15A4.491,4.491,0,0,0,6,10.5a4.536,4.536,0,0,0,4.5-3.9.758.758,0,0,1,1.5.15V6.9A6,6,0,0,1,6,12a6.272,6.272,0,0,1-4.275-1.725l-1.2,1.2c-.3.3-.525.15-.525-.225V7.875A.354.354,0,0,1,.375,7.5Zm4.5-3c-.375,0-.525-.225-.225-.525L9.15,2.85A4.491,4.491,0,0,0,6,1.5,4.536,4.536,0,0,0,1.5,5.4.713.713,0,0,1,.75,6,.709.709,0,0,1,0,5.25V5.1A6,6,0,0,1,6,0a6.272,6.272,0,0,1,4.275,1.725l1.2-1.2c.3-.3.525-.15.525.225V4.125a.354.354,0,0,1-.375.375Z" transform="translate(273.715 48.39)" fill="#fff" fill-rule="evenodd"/>
  </g>
</svg>
