<svg xmlns="http://www.w3.org/2000/svg" width="20.016" height="20" viewBox="0 0 20.016 20">
  <path id="Share" d="M14.94,14.13A3.488,3.488,0,1,1,14,16.5a3.673,3.673,0,0,1,.06-.57l-7-3.06A3.5,3.5,0,1,1,4.5,7a3.43,3.43,0,0,1,2.19.79l7.37-3.7A3.793,3.793,0,0,1,14,3.5,3.5,3.5,0,1,1,17.5,7,3.46,3.46,0,0,1,15,5.88L7.83,9.5a3.59,3.59,0,0,1,.17,1,3.68,3.68,0,0,1-.06.57ZM19,3.5A1.5,1.5,0,1,0,17.5,5,1.5,1.5,0,0,0,19,3.5ZM4.5,12A1.5,1.5,0,1,1,6,10.5,1.5,1.5,0,0,1,4.5,12ZM16,16.5A1.5,1.5,0,1,0,17.5,15,1.5,1.5,0,0,0,16,16.5Z" transform="translate(-0.984)" fill="#fff" fill-rule="evenodd"/>
</svg>
