<svg xmlns="http://www.w3.org/2000/svg" width="21" height="21" viewBox="0 0 21 21">
  <g id="unshare" transform="translate(-377 -43)">
    <path id="Path_2823" data-name="Path 2823" d="M14.94,14.13A3.488,3.488,0,1,1,14,16.5a3.685,3.685,0,0,1,.06-.57l-7-3.06A3.5,3.5,0,1,1,4.5,7a3.43,3.43,0,0,1,2.19.79l7.37-3.7A3.8,3.8,0,0,1,14,3.5,3.5,3.5,0,1,1,17.5,7,3.46,3.46,0,0,1,15,5.88L7.83,9.5a3.59,3.59,0,0,1,.17,1,3.682,3.682,0,0,1-.06.57ZM19,3.5A1.5,1.5,0,1,0,17.5,5,1.5,1.5,0,0,0,19,3.5ZM4.5,12A1.5,1.5,0,1,1,6,10.5,1.5,1.5,0,0,1,4.5,12ZM16,16.5A1.5,1.5,0,1,0,17.5,15,1.5,1.5,0,0,0,16,16.5Z" transform="translate(376.016 43)" fill="#fff" fill-rule="evenodd"/>
    <g id="Ellipse_420" data-name="Ellipse 420" transform="translate(388 54)" fill="#fff" stroke="#000028" stroke-width="1">
      <circle cx="5" cy="5" r="5" stroke="none"/>
      <circle cx="5" cy="5" r="4.5" fill="none"/>
    </g>
    <path id="plus" d="M11,7.4,8.757,7.243,8.6,5H7.4L7.243,7.243,5,7.4l.01,1.2,2.233.157L7.4,11H8.6l.157-2.243L11,8.6Z" transform="translate(393 47.686) rotate(45)" fill="#000028"/>
  </g>
</svg>
