<svg xmlns="http://www.w3.org/2000/svg" width="24.421" height="24.042" viewBox="0 0 24.421 24.042">
  <g id="video_off" data-name="video off" transform="translate(-265.579 -43.393)">
    <path id="Union_1" data-name="Union 1" d="M112.053,186.205v2.531a1.9,1.9,0,0,1-1.895,1.895H96.895A1.9,1.9,0,0,1,95,188.737v-8.842A1.9,1.9,0,0,1,96.895,178h13.263a1.9,1.9,0,0,1,1.895,1.895v2.6L117.737,178A1.264,1.264,0,0,1,119,179.263v10.105a1.264,1.264,0,0,1-1.263,1.263C114.358,188.68,112.784,186.572,112.053,186.205Z" transform="translate(171 -129.082)" fill="#fff"/>
    <g id="Rectangle_3091" data-name="Rectangle 3091" transform="translate(286.793 43.393) rotate(45)" fill="#fff" stroke="#1b1534" stroke-width="1">
      <rect width="4" height="30" stroke="none"/>
      <rect x="0.5" y="0.5" width="3" height="29" fill="none"/>
    </g>
  </g>
</svg>
